<svg width="900" height="900" viewBox="0 0 900 900" fill="none" xmlns="http://www.w3.org/2000/svg">
<path d="M665.718 718.29V651.783L666.894 650.497C673.841 643.001 680.476 635.084 686.602 626.945C693.748 617.432 700.362 607.43 706.265 597.207C708.152 593.947 709.927 590.731 711.57 587.627C718.228 575.052 724.043 561.835 728.814 548.285C733.342 535.49 737.004 522.272 739.711 508.967C742.308 496.104 744.084 482.887 744.993 469.626L745.26 465.479H794.13L793.864 470.158C793.087 483.575 791.489 497.169 789.092 510.608C786.651 524.335 783.366 537.951 779.305 551.058C775.133 564.674 769.984 578.268 764.036 591.485C760.884 598.426 757.489 605.279 753.96 611.865C750.231 618.807 746.325 625.548 742.33 631.935C733.697 645.729 723.998 659.035 713.478 671.476L712.768 672.318C700.606 686.622 687.246 699.973 673.019 712.059L665.695 718.268L665.718 718.29ZM674.595 655.265V698.93C685.736 688.906 696.256 678.084 705.977 666.663L706.754 665.754C716.963 653.668 726.417 640.717 734.829 627.256C738.713 621.046 742.53 614.482 746.148 607.696C749.588 601.265 752.894 594.59 755.957 587.848C761.75 574.986 766.766 561.724 770.827 548.463C774.777 535.689 777.973 522.428 780.348 509.077C782.39 497.568 783.855 485.903 784.698 474.371H753.538C752.562 486.613 750.83 498.832 748.411 510.741C745.637 524.446 741.864 538.084 737.203 551.257C732.276 565.206 726.284 578.845 719.426 591.774C717.74 594.967 715.898 598.316 713.945 601.664C707.886 612.198 701.072 622.488 693.704 632.29C687.756 640.207 681.32 647.924 674.595 655.265Z" fill="url(#paint0_linear_157_60)"/>
<path d="M665.718 603.616V465.523H714.145L713.789 470.291C712.746 484.019 710.616 497.702 707.464 510.897C704.202 524.735 699.785 538.395 694.281 551.502C688.644 565.051 681.786 578.246 673.93 590.687L665.74 603.616H665.718ZM674.595 474.394V572.037C678.857 564.253 682.696 556.247 686.07 548.086C691.374 535.401 695.657 522.206 698.809 508.856C701.472 497.613 703.403 486.059 704.512 474.394H674.595Z" fill="url(#paint1_linear_157_60)"/>
<path d="M235.16 718.312L227.837 712.103C213.61 700.017 200.25 686.667 188.132 672.429L187.4 671.564C176.858 659.101 167.159 645.795 158.526 632.002C154.531 625.615 150.625 618.851 146.896 611.954C143.367 605.345 139.972 598.493 136.82 591.574C130.85 578.334 125.723 564.718 121.551 551.124C117.512 538.04 114.205 524.423 111.764 510.674C109.367 497.279 107.769 483.663 106.992 470.224L106.726 465.545H155.596L155.862 469.692C156.75 482.931 158.526 496.148 161.145 509.033C163.852 522.339 167.514 535.578 172.042 548.352C176.835 561.88 182.628 575.097 189.286 587.671C190.951 590.82 192.726 594.058 194.59 597.251C200.494 607.474 207.108 617.476 214.254 626.99C220.379 635.128 227.015 643.068 233.962 650.541L235.138 651.827V718.335L235.16 718.312ZM116.202 474.393C117.023 485.947 118.488 497.59 120.53 509.1C122.905 522.494 126.123 535.733 130.051 548.485C134.113 561.746 139.128 575.008 144.921 587.893C147.984 594.612 151.291 601.287 154.731 607.74C158.348 614.482 162.165 621.069 166.049 627.278C174.461 640.717 183.915 653.69 194.147 665.798L194.901 666.686C204.6 678.062 215.12 688.884 226.261 698.93V655.265C219.536 647.946 213.122 640.229 207.152 632.29C199.784 622.488 192.97 612.198 186.911 601.664C184.981 598.36 183.138 595.033 181.43 591.773C174.572 578.822 168.579 565.184 163.652 551.257C158.992 538.084 155.219 524.446 152.445 510.741C150.025 498.832 148.317 486.613 147.318 474.371H116.158L116.202 474.393Z" fill="url(#paint2_linear_157_60)"/>
<path d="M235.16 603.616L226.97 590.687C219.092 578.224 212.234 565.051 206.597 551.501C201.115 538.395 196.676 524.734 193.414 510.918C190.262 497.723 188.131 484.062 187.088 470.313L186.733 465.545H235.16V603.638V603.616ZM196.365 474.393C197.475 486.058 199.384 497.634 202.069 508.856C205.221 522.228 209.504 535.423 214.808 548.086C218.204 556.247 222.043 564.252 226.282 572.036V474.393H196.365Z" fill="url(#paint3_linear_157_60)"/>
<path d="M430.465 111.276V190.535V788.723C437.078 789.1 443.736 789.299 450.439 789.299C457.141 789.299 463.8 789.1 470.413 788.723V191.289V111.276C463.8 110.899 457.141 110.699 450.439 110.699C443.736 110.699 437.078 110.899 430.465 111.276Z" fill="url(#paint4_linear_157_60)"/>
<path d="M270.67 737.917C277.128 741.953 283.742 745.768 290.489 749.383C297.08 752.909 303.783 756.213 310.618 759.318V469.959H270.67V737.917Z" fill="url(#paint5_linear_157_60)"/>
<path d="M350.568 774.376C363.573 778.39 376.889 781.606 390.516 784.023V310.289H350.568V774.376Z" fill="url(#paint6_linear_157_60)"/>
<path d="M510.362 784.023C523.989 781.606 537.305 778.39 550.311 774.376V310.289H510.362V784.023Z" fill="url(#paint7_linear_157_60)"/>
<path d="M590.259 759.318C597.095 756.213 603.798 752.909 610.389 749.383C617.136 745.768 623.75 741.953 630.208 737.917V469.959H590.259V759.318Z" fill="url(#paint8_linear_157_60)"/>
<path d="M634.668 274.806H505.945V226.018H634.668V274.806ZM514.823 265.935H625.791V234.888H514.823V265.935Z" fill="url(#paint9_linear_157_60)"/>
<path d="M394.977 274.806H266.253V226.018H394.977V274.806ZM275.131 265.935H386.099V234.888H275.131V265.935Z" fill="url(#paint10_linear_157_60)"/>
<path d="M714.566 354.642H585.843V305.854H714.566V354.642ZM594.72 345.771H705.689V314.724H594.72V345.771Z" fill="url(#paint11_linear_157_60)"/>
<path d="M810.287 434.475H585.82V385.687H782.079C783.433 383.137 784.765 380.587 786.008 378.036C790.757 368.611 795.196 358.698 799.213 348.564L800.322 345.77H852.256L850.169 351.691C845.464 365.019 840.005 378.28 833.924 391.143C833.724 391.586 833.569 391.919 833.413 392.229C826.933 405.868 819.542 419.44 811.552 432.391L810.243 434.498L810.287 434.475ZM594.698 425.605H805.316C812.662 413.563 819.453 400.989 825.512 388.215C825.69 387.883 825.734 387.75 825.801 387.594L825.89 387.373C830.95 376.661 835.566 365.662 839.672 354.618H806.337C802.52 364.021 798.347 373.202 793.953 381.984C792.266 385.377 790.468 388.836 788.626 392.229L787.361 394.558H594.676V425.605H594.698Z" fill="url(#paint12_linear_157_60)"/>
<path d="M315.08 434.475H90.6128L89.3034 432.369C81.3137 419.418 73.9454 405.89 67.3761 392.118C67.2207 391.83 67.0875 391.542 66.9544 391.253C60.8289 378.28 55.3693 364.997 50.6642 351.691L48.578 345.77H100.533L101.643 348.564C105.66 358.676 110.099 368.589 114.848 378.014C116.113 380.564 117.445 383.137 118.799 385.687H315.08V434.475ZM95.5842 425.605H306.202V394.558H113.517L112.252 392.229C110.41 388.836 108.612 385.377 106.925 381.984C102.509 373.224 98.3584 364.043 94.5411 354.64H61.2062C65.312 365.684 69.9061 376.661 74.9663 387.35L75.0773 387.594C75.1438 387.727 75.2104 387.883 75.277 388.016L75.388 388.215C81.4469 400.989 88.2381 413.541 95.5842 425.605Z" fill="url(#paint13_linear_157_60)"/>
<path d="M315.08 354.642H186.356V305.854H315.08V354.642ZM195.234 345.771H306.202V314.724H195.234V345.771Z" fill="url(#paint14_linear_157_60)"/>
<defs>
<linearGradient id="paint0_linear_157_60" x1="729.913" y1="465.479" x2="729.913" y2="718.29" gradientUnits="userSpaceOnUse">
<stop offset="0.31" stop-color="#E55839"/>
<stop offset="1" stop-color="#FBDB32"/>
</linearGradient>
<linearGradient id="paint1_linear_157_60" x1="689.931" y1="465.523" x2="689.931" y2="603.616" gradientUnits="userSpaceOnUse">
<stop offset="0.31" stop-color="#E55839"/>
<stop offset="1" stop-color="#FBDB32"/>
</linearGradient>
<linearGradient id="paint2_linear_157_60" x1="170.943" y1="465.545" x2="170.943" y2="718.335" gradientUnits="userSpaceOnUse">
<stop offset="0.31" stop-color="#E55839"/>
<stop offset="1" stop-color="#FBDB32"/>
</linearGradient>
<linearGradient id="paint3_linear_157_60" x1="210.947" y1="465.545" x2="210.947" y2="603.638" gradientUnits="userSpaceOnUse">
<stop offset="0.31" stop-color="#E55839"/>
<stop offset="1" stop-color="#FBDB32"/>
</linearGradient>
<linearGradient id="paint4_linear_157_60" x1="450.439" y1="110.699" x2="450.439" y2="789.299" gradientUnits="userSpaceOnUse">
<stop offset="0.31" stop-color="#E55839"/>
<stop offset="1" stop-color="#FBDB32"/>
</linearGradient>
<linearGradient id="paint5_linear_157_60" x1="290.644" y1="469.959" x2="290.644" y2="759.318" gradientUnits="userSpaceOnUse">
<stop offset="0.31" stop-color="#E55839"/>
<stop offset="1" stop-color="#FBDB32"/>
</linearGradient>
<linearGradient id="paint6_linear_157_60" x1="370.542" y1="310.289" x2="370.542" y2="784.023" gradientUnits="userSpaceOnUse">
<stop offset="0.31" stop-color="#E55839"/>
<stop offset="1" stop-color="#FBDB32"/>
</linearGradient>
<linearGradient id="paint7_linear_157_60" x1="530.336" y1="310.289" x2="530.336" y2="784.023" gradientUnits="userSpaceOnUse">
<stop offset="0.31" stop-color="#E55839"/>
<stop offset="1" stop-color="#FBDB32"/>
</linearGradient>
<linearGradient id="paint8_linear_157_60" x1="610.234" y1="469.959" x2="610.234" y2="759.318" gradientUnits="userSpaceOnUse">
<stop offset="0.31" stop-color="#E55839"/>
<stop offset="1" stop-color="#FBDB32"/>
</linearGradient>
<linearGradient id="paint9_linear_157_60" x1="570.307" y1="226.018" x2="570.307" y2="274.806" gradientUnits="userSpaceOnUse">
<stop offset="0.31" stop-color="#E55839"/>
<stop offset="1" stop-color="#FBDB32"/>
</linearGradient>
<linearGradient id="paint10_linear_157_60" x1="330.615" y1="226.018" x2="330.615" y2="274.806" gradientUnits="userSpaceOnUse">
<stop offset="0.31" stop-color="#E55839"/>
<stop offset="1" stop-color="#FBDB32"/>
</linearGradient>
<linearGradient id="paint11_linear_157_60" x1="650.205" y1="305.854" x2="650.205" y2="354.642" gradientUnits="userSpaceOnUse">
<stop offset="0.31" stop-color="#E55839"/>
<stop offset="1" stop-color="#FBDB32"/>
</linearGradient>
<linearGradient id="paint12_linear_157_60" x1="719.038" y1="345.77" x2="719.038" y2="434.498" gradientUnits="userSpaceOnUse">
<stop offset="0.31" stop-color="#E55839"/>
<stop offset="1" stop-color="#FBDB32"/>
</linearGradient>
<linearGradient id="paint13_linear_157_60" x1="181.829" y1="345.77" x2="181.829" y2="434.475" gradientUnits="userSpaceOnUse">
<stop offset="0.31" stop-color="#E55839"/>
<stop offset="1" stop-color="#FBDB32"/>
</linearGradient>
<linearGradient id="paint14_linear_157_60" x1="250.718" y1="305.854" x2="250.718" y2="354.642" gradientUnits="userSpaceOnUse">
<stop offset="0.31" stop-color="#E55839"/>
<stop offset="1" stop-color="#FBDB32"/>
</linearGradient>
</defs>
</svg>
